<svg width="36" height="33" viewBox="0 0 36 33" fill="none" xmlns="http://www.w3.org/2000/svg">
<path d="M0.393555 22.3365C0.674781 22.4975 1.03438 22.401 1.19629 22.1226L11.7832 3.91653C13.2579 1.38054 16.5236 0.512379 19.0771 1.9761C21.631 3.44012 22.5062 6.6829 21.0312 9.21927L19.5801 11.7154L20.5977 12.2974L22.0488 9.8013C23.8472 6.70876 22.7806 2.75326 19.665 0.967315C16.549 -0.818852 12.5643 0.241532 10.7656 3.3345L0.178711 21.5415C0.0171897 21.8196 0.112786 22.1755 0.393555 22.3365ZM5.52637 25.1861C5.80763 25.3473 6.16715 25.2517 6.3291 24.9732L16.5107 7.46439C16.6724 7.18638 16.5766 6.83048 16.2959 6.66946C16.0147 6.50828 15.6552 6.60401 15.4932 6.88235L5.31152 24.3911C5.14985 24.6692 5.24564 25.025 5.52637 25.1861ZM19.2656 25.4419C19.5469 25.6031 19.9064 25.5075 20.0684 25.229L30.2334 7.74857C30.3951 7.4705 30.2994 7.11463 30.0186 6.95364C29.7373 6.79249 29.3788 6.88812 29.2168 7.16653L19.0508 24.647C18.8891 24.925 18.985 25.2809 19.2656 25.4419ZM15.7715 31.1988C18.8875 32.9847 22.8714 31.9245 24.6699 28.8316L35.2988 10.5533C35.4605 10.2752 35.3648 9.91931 35.084 9.75833C34.8029 9.59739 34.4442 9.69311 34.2822 9.97122L23.6523 28.2505C22.1775 30.7862 18.9118 31.6546 16.3584 30.1909C13.8047 28.727 12.9296 25.4841 14.4043 22.9478L15.7061 20.7095L14.6885 20.1265L13.3867 22.3658C11.5885 25.4583 12.6559 29.4129 15.7715 31.1988ZM18.0166 17.2456C18.2978 17.4067 18.6573 17.311 18.8193 17.0327C18.981 16.7548 18.885 16.3989 18.6045 16.2378L17.042 15.3423C16.7607 15.1811 16.4012 15.2767 16.2393 15.5552C16.0777 15.8332 16.1735 16.1891 16.4541 16.3501L18.0166 17.2456Z" fill="#181818"/>
</svg>
