<svg width="1322" height="224" viewBox="0 0 1322 224" fill="none" xmlns="http://www.w3.org/2000/svg">
<path fill-rule="evenodd" clip-rule="evenodd" d="M85 54.001C101.103 54.001 115.473 57.7646 128.111 65.293C140.953 72.6179 151.043 82.6901 158.381 95.5088C165.923 108.327 169.796 122.876 170 139.153V210.877C170 214.336 168.879 217.185 166.637 219.423C164.395 221.457 161.54 222.475 158.075 222.475C154.61 222.475 151.757 221.457 149.515 219.423C147.273 217.185 146.151 214.336 146.151 210.877V192.32C139.898 201.081 131.948 208.284 122.302 213.929C110.683 220.643 97.4337 224.001 82.5537 224.001C66.8584 224.001 52.7934 220.338 40.3594 213.013C27.9255 205.484 18.0392 195.311 10.7012 182.492C3.56702 169.674 3.24022e-05 155.227 0 139.153C0 122.876 3.66883 108.327 11.0068 95.5088C18.5488 82.6901 28.7413 72.6179 41.583 65.293C54.4247 57.7646 68.897 54.001 85 54.001Z" fill="white"/>
<path fill-rule="evenodd" clip-rule="evenodd" d="M271 53.7852C287.307 53.7852 301.779 57.452 314.417 64.7861C327.259 72.1204 337.349 82.2051 344.688 95.04C352.026 107.875 355.796 122.544 356 139.046C356 155.344 352.229 169.91 344.688 182.745C337.349 195.58 327.259 205.665 314.417 212.999C301.779 220.333 287.307 224.001 271 224.001C254.693 224.001 240.119 220.333 227.277 212.999C214.436 205.665 204.345 195.58 197.007 182.745C189.669 169.91 186 155.344 186 139.046C186 122.544 189.669 107.875 197.007 95.04C204.345 82.2051 214.436 72.1204 227.277 64.7861C240.119 57.452 254.693 53.7852 271 53.7852Z" fill="white"/>
<path d="M298.442 0C301.704 0 304.456 1.01935 306.698 3.05664C309.144 5.0939 310.367 7.74244 310.367 11.002C310.367 14.4652 309.144 17.2157 306.698 19.2529C304.456 21.0865 301.704 22.0029 298.442 22.0029H243.252C239.991 22.0029 237.136 21.0865 234.69 19.2529C232.448 17.2157 231.327 14.4653 231.327 11.002C231.327 7.74241 232.448 5.09391 234.69 3.05664C237.136 1.01935 239.991 0 243.252 0H298.442Z" fill="white"/>
<path d="M1256.8 221.8C1245 221.8 1233.3 219.8 1221.7 215.8C1210.1 211.8 1200.7 205.8 1193.5 197.8C1191.3 195.4 1190.4 192.7 1190.8 189.7C1191.2 186.7 1192.7 184.1 1195.3 181.9C1198.1 179.9 1201 179.1 1204 179.5C1207 179.9 1209.5 181.2 1211.5 183.4C1216.3 189 1222.6 193.3 1230.4 196.3C1238.4 199.3 1247.2 200.8 1256.8 200.8C1271.6 200.8 1282.3 198.3 1288.9 193.3C1295.5 188.1 1298.9 181.9 1299.1 174.7C1299.1 167.5 1295.7 161.6 1288.9 157C1282.1 152.2 1270.9 148.5 1255.3 145.9C1235.1 142.7 1220.3 137.1 1210.9 129.1C1201.5 121.1 1196.8 111.6 1196.8 100.6C1196.8 90.4005 1199.5 81.9005 1204.9 75.1005C1210.3 68.3005 1217.5 63.2005 1226.5 59.8005C1235.5 56.4005 1245.4 54.7005 1256.2 54.7005C1269.6 54.7005 1281.1 57.0005 1290.7 61.6005C1300.5 66.2005 1308.4 72.4005 1314.4 80.2005C1316.4 82.8005 1317.2 85.5005 1316.8 88.3005C1316.4 91.1005 1314.8 93.4005 1312 95.2005C1309.6 96.6005 1306.8 97.1005 1303.6 96.7005C1300.6 96.1005 1298 94.6005 1295.8 92.2005C1290.8 86.4005 1285 82.2005 1278.4 79.6005C1271.8 76.8005 1264.2 75.4005 1255.6 75.4005C1244.6 75.4005 1235.8 77.7005 1229.2 82.3005C1222.6 86.7005 1219.3 92.3005 1219.3 99.1005C1219.3 103.7 1220.5 107.7 1222.9 111.1C1225.5 114.5 1229.8 117.5 1235.8 120.1C1242 122.7 1250.6 124.9 1261.6 126.7C1276.6 129.1 1288.4 132.7 1297 137.5C1305.8 142.1 1312 147.6 1315.6 154C1319.4 160.2 1321.3 167 1321.3 174.4C1321.3 183.8 1318.5 192.1 1312.9 199.3C1307.5 206.3 1299.9 211.8 1290.1 215.8C1280.5 219.8 1269.4 221.8 1256.8 221.8Z" fill="white"/>
<path d="M1071.17 221.8C1055.17 221.8 1040.87 218.2 1028.27 211C1015.67 203.8 1005.77 193.9 998.574 181.3C991.374 168.7 987.774 154.4 987.774 138.4C987.774 122.2 991.374 107.8 998.574 95.2005C1005.77 82.6005 1015.67 72.7005 1028.27 65.5005C1040.87 58.3005 1055.17 54.7005 1071.17 54.7005C1087.17 54.7005 1101.37 58.3005 1113.77 65.5005C1126.37 72.7005 1136.27 82.6005 1143.47 95.2005C1150.67 107.8 1154.37 122.2 1154.57 138.4C1154.57 154.4 1150.87 168.7 1143.47 181.3C1136.27 193.9 1126.37 203.8 1113.77 211C1101.37 218.2 1087.17 221.8 1071.17 221.8ZM1071.17 200.8C1082.77 200.8 1093.17 198.1 1102.37 192.7C1111.57 187.3 1118.77 179.9 1123.97 170.5C1129.17 161.1 1131.77 150.4 1131.77 138.4C1131.77 126.4 1129.17 115.7 1123.97 106.3C1118.77 96.7005 1111.57 89.2005 1102.37 83.8005C1093.17 78.4005 1082.77 75.7005 1071.17 75.7005C1059.57 75.7005 1049.17 78.4005 1039.97 83.8005C1030.77 89.2005 1023.47 96.7005 1018.07 106.3C1012.87 115.7 1010.27 126.4 1010.27 138.4C1010.27 150.4 1012.87 161.1 1018.07 170.5C1023.47 179.9 1030.77 187.3 1039.97 192.7C1049.17 198.1 1059.57 200.8 1071.17 200.8ZM1032.17 23.5005C1028.97 23.5005 1026.17 22.6005 1023.77 20.8005C1021.57 18.8005 1020.47 16.1005 1020.47 12.7005C1020.47 9.50049 1021.57 6.90048 1023.77 4.90047C1026.17 2.90048 1028.97 1.90048 1032.17 1.90048H1109.87C1113.07 1.90048 1115.77 2.90048 1117.97 4.90047C1120.37 6.90048 1121.57 9.50049 1121.57 12.7005C1121.57 16.1005 1120.37 18.8005 1117.97 20.8005C1115.77 22.6005 1113.07 23.5005 1109.87 23.5005H1032.17Z" fill="white"/>
<path d="M892.055 221.8C880.255 221.8 868.555 219.8 856.955 215.8C845.355 211.8 835.955 205.8 828.755 197.8C826.555 195.4 825.655 192.7 826.055 189.7C826.455 186.7 827.955 184.1 830.555 181.9C833.355 179.9 836.255 179.1 839.255 179.5C842.255 179.9 844.755 181.2 846.755 183.4C851.555 189 857.855 193.3 865.655 196.3C873.655 199.3 882.455 200.8 892.055 200.8C906.855 200.8 917.555 198.3 924.155 193.3C930.755 188.1 934.155 181.9 934.355 174.7C934.355 167.5 930.955 161.6 924.155 157C917.355 152.2 906.155 148.5 890.555 145.9C870.355 142.7 855.555 137.1 846.155 129.1C836.755 121.1 832.055 111.6 832.055 100.6C832.055 90.4005 834.755 81.9005 840.155 75.1005C845.555 68.3005 852.755 63.2005 861.755 59.8005C870.755 56.4005 880.655 54.7005 891.455 54.7005C904.855 54.7005 916.355 57.0005 925.955 61.6005C935.755 66.2005 943.655 72.4005 949.655 80.2005C951.655 82.8005 952.455 85.5005 952.055 88.3005C951.655 91.1005 950.055 93.4005 947.255 95.2005C944.855 96.6005 942.055 97.1005 938.855 96.7005C935.855 96.1005 933.255 94.6005 931.055 92.2005C926.055 86.4005 920.255 82.2005 913.655 79.6005C907.055 76.8005 899.455 75.4005 890.855 75.4005C879.855 75.4005 871.055 77.7005 864.455 82.3005C857.855 86.7005 854.555 92.3005 854.555 99.1005C854.555 103.7 855.755 107.7 858.155 111.1C860.755 114.5 865.055 117.5 871.055 120.1C877.255 122.7 885.855 124.9 896.855 126.7C911.855 129.1 923.655 132.7 932.255 137.5C941.055 142.1 947.255 147.6 950.855 154C954.655 160.2 956.555 167 956.555 174.4C956.555 183.8 953.755 192.1 948.155 199.3C942.755 206.3 935.155 211.8 925.355 215.8C915.755 219.8 904.655 221.8 892.055 221.8Z" fill="white"/>
<path d="M703.128 222.1C688.928 222.1 676.228 219.2 665.028 213.4C653.828 207.4 644.928 198.7 638.328 187.3C631.928 175.9 628.728 162 628.728 145.6V67.6005C628.728 64.4005 629.828 61.7005 632.028 59.5005C634.228 57.3005 636.928 56.2005 640.128 56.2005C643.528 56.2005 646.328 57.3005 648.528 59.5005C650.728 61.7005 651.828 64.4005 651.828 67.6005V145.6C651.828 158 654.128 168.2 658.728 176.2C663.528 184.2 669.928 190.2 677.928 194.2C686.128 198.2 695.328 200.2 705.528 200.2C715.328 200.2 724.128 198.3 731.928 194.5C739.928 190.7 746.228 185.5 750.828 178.9C755.428 172.3 757.728 164.8 757.728 156.4H774.228C773.628 169 770.128 180.3 763.728 190.3C757.528 200.1 749.128 207.9 738.528 213.7C727.928 219.3 716.128 222.1 703.128 222.1ZM769.128 220.3C765.728 220.3 762.928 219.3 760.728 217.3C758.728 215.1 757.728 212.2 757.728 208.6V67.6005C757.728 64.2005 758.728 61.5005 760.728 59.5005C762.928 57.3005 765.728 56.2005 769.128 56.2005C772.528 56.2005 775.328 57.3005 777.528 59.5005C779.728 61.5005 780.828 64.2005 780.828 67.6005V208.6C780.828 212.2 779.728 215.1 777.528 217.3C775.328 219.3 772.528 220.3 769.128 220.3Z" fill="white"/>
<path d="M501 221.8C485.6 221.8 471.8 218.2 459.6 211C447.4 203.6 437.7 193.6 430.5 181C423.5 168.4 420 154.2 420 138.4C420 122.4 423.6 108.1 430.8 95.5005C438.2 82.9005 448.2 73.0005 460.8 65.8005C473.4 58.4005 487.6 54.7005 503.4 54.7005C519.2 54.7005 533.3 58.4005 545.7 65.8005C558.3 73.0005 568.2 82.9005 575.4 95.5005C582.8 108.1 586.6 122.4 586.8 138.4L577.5 145.6C577.5 160 574.1 173 567.3 184.6C560.7 196 551.6 205.1 540 211.9C528.6 218.5 515.6 221.8 501 221.8ZM503.4 200.8C515 200.8 525.3 198.1 534.3 192.7C543.5 187.3 550.7 179.9 555.9 170.5C561.3 160.9 564 150.2 564 138.4C564 126.4 561.3 115.7 555.9 106.3C550.7 96.9005 543.5 89.5005 534.3 84.1005C525.3 78.5005 515 75.7005 503.4 75.7005C492 75.7005 481.7 78.5005 472.5 84.1005C463.3 89.5005 456 96.9005 450.6 106.3C445.2 115.7 442.5 126.4 442.5 138.4C442.5 150.2 445.2 160.9 450.6 170.5C456 179.9 463.3 187.3 472.5 192.7C481.7 198.1 492 200.8 503.4 200.8ZM575.1 220.3C571.7 220.3 568.9 219.3 566.7 217.3C564.5 215.1 563.4 212.3 563.4 208.9V157.6L569.1 133.9L586.8 138.4V208.9C586.8 212.3 585.7 215.1 583.5 217.3C581.3 219.3 578.5 220.3 575.1 220.3Z" fill="white"/>
</svg>
