<svg width="408" height="408" viewBox="0 0 408 408" fill="none" xmlns="http://www.w3.org/2000/svg">
<path fill-rule="evenodd" clip-rule="evenodd" d="M134.213 163.608C145.431 163.608 155.442 166.229 164.246 171.472C173.192 176.573 180.221 183.588 185.333 192.515C190.587 201.442 193.285 211.574 193.427 222.91V272.86C193.427 275.269 192.646 277.253 191.084 278.812C189.522 280.229 187.534 280.937 185.12 280.937C182.706 280.937 180.718 280.228 179.156 278.812C177.594 277.253 176.813 275.269 176.813 272.86V259.937C172.457 266.038 166.919 271.054 160.199 274.985C152.105 279.662 142.875 282 132.509 282C121.575 282 111.777 279.449 103.116 274.347C94.4537 269.105 87.5666 262.019 82.4547 253.092C77.4849 244.165 75 234.104 75 222.91C75 211.574 77.5558 201.442 82.6677 192.515C87.9216 183.588 95.022 176.573 103.968 171.472C112.914 166.229 122.996 163.608 134.213 163.608Z" fill="white"/>
<path fill-rule="evenodd" clip-rule="evenodd" d="M273.787 163.457C285.146 163.457 295.228 166.011 304.032 171.119C312.978 176.226 320.007 183.25 325.119 192.188C330.231 201.127 332.858 211.343 333 222.835C333 234.185 330.373 244.33 325.119 253.268C320.007 262.207 312.978 269.23 304.032 274.338C295.228 279.446 285.146 282 273.787 282C262.427 282 252.274 279.446 243.328 274.338C234.382 269.23 227.353 262.207 222.241 253.268C217.129 244.33 214.573 234.185 214.573 222.835C214.573 211.343 217.129 201.127 222.241 192.188C227.353 183.25 234.382 176.226 243.328 171.119C252.274 166.011 262.427 163.457 273.787 163.457Z" fill="white"/>
<path d="M292.904 126C295.176 126 297.093 126.71 298.655 128.129C300.359 129.548 301.211 131.392 301.211 133.662C301.211 136.074 300.359 137.989 298.655 139.408C297.093 140.685 295.176 141.323 292.904 141.323H254.456C252.184 141.323 250.196 140.685 248.492 139.408C246.93 137.989 246.149 136.074 246.149 133.662C246.149 131.392 246.93 129.548 248.492 128.129C250.196 126.71 252.184 126 254.456 126H292.904Z" fill="white"/>
</svg>
