<svg xmlns="http://www.w3.org/2000/svg" width="1200" height="630" viewBox="0 0 1200 630" role="img" aria-label="Shannon Hecker — Lead Product Designer">
  <rect width="1200" height="630" fill="#ffffff"/>
  <!-- Logo mark centered -->
  <g fill="#0a0a0a" transform="translate(560 140) scale(2)">
    <path fill-rule="evenodd" clip-rule="evenodd" d="M35.4505 71.0009C42.5839 75.1162 51.7054 72.674 55.8238 65.5461L79.7921 24.064C80.22 23.3234 79.9661 22.3765 79.225 21.9489C78.4838 21.5213 77.5362 21.7751 77.1083 22.5156L53.14 63.9978C49.8773 69.6446 42.6512 71.5793 37.0001 68.3191C31.3489 65.059 29.4127 57.8385 32.6754 52.1917L35.7249 46.9139L33.041 45.3655L29.9915 50.6434C25.873 57.7713 28.3171 66.8856 35.4505 71.0009Z"/>
    <path fill-rule="evenodd" clip-rule="evenodd" d="M44.4549 1.99908C37.3215 -2.11621 28.2 0.325984 24.0816 7.45386L0.207858 48.7723C-0.220035 49.5129 0.0338958 50.4598 0.775029 50.8874C1.51616 51.315 2.46384 51.0612 2.89174 50.3207L26.7655 9.0022C30.0281 3.35544 37.2542 1.42072 42.9054 4.68088C48.5565 7.94104 50.4927 15.1615 47.23 20.8083L43.8444 26.6679L46.5283 28.2162L49.9139 22.3566C54.0324 15.2287 51.5883 6.11436 44.4549 1.99908Z"/>
    <path fill-rule="evenodd" clip-rule="evenodd" d="M36.8579 14.9389C36.1167 14.5113 35.1691 14.7651 34.7412 15.5056L11.7821 55.2411C11.3542 55.9817 11.6082 56.9286 12.3493 57.3562C13.0904 57.7837 14.0381 57.53 14.466 56.7894L37.425 17.054C37.8529 16.3134 37.599 15.3665 36.8579 14.9389Z"/>
    <path fill-rule="evenodd" clip-rule="evenodd" d="M42.6306 38.7678C42.2027 39.5084 41.255 39.7621 40.5139 39.3346L36.9913 37.3024C36.2502 36.8748 35.9963 35.9279 36.4241 35.1873C36.852 34.4467 37.7997 34.193 38.5409 34.6206L42.0634 36.6528C42.8046 37.0803 43.0585 38.0273 42.6306 38.7678Z"/>
    <path fill-rule="evenodd" clip-rule="evenodd" d="M67.8028 15.5829C67.0616 15.1553 66.1139 15.4091 65.686 16.1496L42.7637 55.8216C42.3358 56.5622 42.5897 57.5091 43.3308 57.9367C44.072 58.3643 45.0196 58.1105 45.4475 57.37L68.3699 17.698C68.7978 16.9574 68.5439 16.0104 67.8028 15.5829Z"/>
  </g>
  <text x="600" y="520" text-anchor="middle" font-family="system-ui, -apple-system, Segoe UI, Inter, sans-serif" font-size="42" font-weight="600" fill="#0a0a0a" letter-spacing="-0.02em">Shannon Hecker</text>
  <text x="600" y="572" text-anchor="middle" font-family="system-ui, -apple-system, Segoe UI, Inter, sans-serif" font-size="22" font-weight="400" fill="#555555" letter-spacing="0.04em">LEAD PRODUCT DESIGNER · LONDON</text>
</svg>
